<svg width="64" height="64" viewBox="0 0 64 64" fill="none" xmlns="http://www.w3.org/2000/svg">
  <rect width="64" height="64" rx="16" fill="url(#paint0_linear)"/>
  <path d="M20.52 22.48c3.24-2.38 6.78-3.36 9.28-3.8l1.2 2.52c2.36-0.24 4.72-0.02 7.2 0.72l1.12-2.36c2.96 0.6 6.48 1.88 9.16 4.12 0 0 4 6.54 4 14.6-3.4 4.14-7.96 6.36-12.48 7.16-0.96-1.28-1.84-2.64-2.64-4.04a19.6 19.6 0 0 1-4.68 0.56 19.46 19.46 0 0 1-4.72-0.6c-0.8 1.42-1.72 2.8-2.68 4.1-4.52-0.8-9.04-3.04-12.44-7.16 0-8.06 4.08-14.82 4.08-14.82zm9.96 9.68c-1.12 0-2.04 1.08-2.04 2.4s0.92 2.4 2.04 2.4 2.04-1.08 2.04-2.4-0.92-2.4-2.04-2.4zm10.32 0c-1.12 0-2.04 1.08-2.04 2.4s0.92 2.4 2.04 2.4 2.04-1.08 2.04-2.4-0.92-2.4-2.04-2.4z" fill="white"/>
  <defs>
    <linearGradient id="paint0_linear" x1="8" y1="8" x2="56" y2="56" gradientUnits="userSpaceOnUse">
      <stop stop-color="#f472b6"/>
      <stop offset="1" stop-color="#db2777"/>
    </linearGradient>
  </defs>
</svg>
